<svg xmlns="http://www.w3.org/2000/svg" xmlns:xlink="http://www.w3.org/1999/xlink" width="1920" zoomAndPan="magnify" viewBox="0 0 1440 809.999993" height="1080" preserveAspectRatio="xMidYMid meet" version="1.0"><defs><g/></defs><path stroke-linecap="butt" transform="matrix(0.592596, -0.148139, 0.148139, 0.592596, 442.970432, 69.819019)" fill="none" stroke-linejoin="miter" d="M 72.655833 27.142839 L 72.651987 75.808848 L 29.330755 75.809567 L 29.328396 27.142007 L 9.342095 27.142338 L 9.340764 133.941716 L 29.327066 133.941384 L 29.331084 95.664033 L 72.652317 95.663315 L 72.654503 133.942217 L 92.54154 133.943438 L 92.54287 27.14406 Z M 72.655833 27.142839 " stroke="#80004e" stroke-width="10.00005" stroke-opacity="1" stroke-miterlimit="4"/><path stroke-linecap="butt" transform="matrix(0.601437, -0.106717, 0.106717, 0.601437, 506.637053, 53.844843)" fill="none" stroke-linejoin="miter" d="M 59.207784 24.993832 C 29.070847 24.998211 4.657865 49.406226 4.65483 79.548342 C 4.657381 109.658975 29.071693 134.073074 59.207512 134.074992 C 89.318145 134.072441 113.732245 109.65813 113.73599 79.548614 C 113.732729 49.40538 89.318417 24.991281 59.207784 24.993832 Z M 59.209784 45.407538 C 78.123164 45.405615 91.470975 60.737747 91.470767 79.553325 C 91.470966 98.330007 78.124071 113.666777 59.211809 113.662403 C 40.396231 113.662195 27.048419 98.330064 27.04822 79.553382 C 27.048428 60.737804 40.394206 45.40733 59.209784 45.407538 Z M 59.209784 45.407538 " stroke="#80004e" stroke-width="10.00005" stroke-opacity="1" stroke-miterlimit="4"/><path stroke-linecap="butt" transform="matrix(0.607389, -0.0647564, 0.0647564, 0.607389, 581.252017, 40.90173)" fill="none" stroke-linejoin="miter" d="M 92.672624 66.334457 C 92.672412 44.198191 82.518868 26.330204 55.334567 26.326013 L 9.344537 26.329831 L 9.342588 132.997764 L 29.330564 133.000038 L 29.329193 106.471128 L 55.336928 106.472073 C 57.748647 106.471948 59.994519 106.33838 62.138133 106.078148 L 71.744347 133.000814 L 92.671575 133.000326 L 80.529736 98.855182 C 89.317782 91.528002 92.671193 79.679077 92.672624 66.334457 Z M 29.328497 86.45068 L 29.328368 46.216981 L 55.336103 46.217927 C 65.201217 46.221402 67.869923 49.541458 68.810417 50.612842 C 71.319635 53.800132 72.651732 59.402255 72.652175 66.335153 C 72.655776 73.660691 71.319763 79.254897 68.942957 82.184947 C 66.665183 85.15128 62.140595 86.450341 55.336232 86.451625 Z M 29.328497 86.45068 " stroke="#80004e" stroke-width="10.00005" stroke-opacity="1" stroke-miterlimit="4"/><path stroke-linecap="butt" transform="matrix(0.610267, -0.026251, 0.026251, 0.610267, 646.30615, 34.09578)" fill="none" stroke-linejoin="miter" d="M 89.450333 26.330747 L 9.343319 26.328577 L 9.33917 46.215956 L 39.455239 46.218436 L 39.45393 133.001614 L 59.341584 132.999373 L 59.342893 46.216196 L 89.452574 46.218401 Z M 89.450333 26.330747 " stroke="#80004e" stroke-width="10.00005" stroke-opacity="1" stroke-miterlimit="4"/><path stroke-linecap="butt" transform="matrix(0.610831, 0.000179507, -0.000179507, 0.610831, 708.727483, 31.854316)" fill="none" stroke-linejoin="miter" d="M 9.342893 26.327249 L 29.327187 26.327772 L 29.326446 132.612242 L 9.342152 132.61172 Z M 9.342893 26.327249 " stroke="#80004e" stroke-width="10.00005" stroke-opacity="1" stroke-miterlimit="4"/><path stroke-linecap="butt" transform="matrix(0.610392, 0.0231506, -0.0231506, 0.610392, 734.191793, 31.65431)" fill="none" stroke-linejoin="miter" d="M 75.582735 46.349223 L 75.585054 26.331274 L 9.342986 26.328637 L 9.344347 133.003048 L 29.330102 133.000188 L 29.32638 95.274853 L 58.65566 95.275993 L 58.657737 75.251654 L 29.328699 75.256905 L 29.326664 46.350116 Z M 75.582735 46.349223 " stroke="#80004e" stroke-width="10.00005" stroke-opacity="1" stroke-miterlimit="4"/><path stroke-linecap="butt" transform="matrix(0.60805, 0.0582251, -0.0582251, 0.60805, 786.343095, 33.527395)" fill="none" stroke-linejoin="miter" d="M 92.67535 66.334013 C 92.676095 44.202483 82.516502 26.326657 55.335692 26.327599 L 9.344978 26.330938 L 9.344658 132.998817 L 29.330486 132.999453 L 29.327452 106.46769 L 55.339314 106.469471 C 57.748454 106.470051 59.990793 106.338846 62.137576 106.081883 L 71.743111 132.998257 L 92.673254 132.998407 L 80.531782 98.853492 C 89.319088 91.530002 92.675243 79.683565 92.67535 66.334013 Z M 29.331406 86.449423 L 29.327392 46.221304 L 55.338644 46.21672 C 65.199839 46.216802 67.869275 49.539479 68.813536 50.611844 C 71.322537 53.802126 72.655035 59.398516 72.657693 66.336425 C 72.652365 73.660553 71.31865 79.255282 68.946183 82.187062 C 66.666495 85.148502 62.139909 86.449225 55.336902 86.451814 Z M 29.331406 86.449423 " stroke="#80004e" stroke-width="10.00005" stroke-opacity="1" stroke-miterlimit="4"/><path stroke-linecap="butt" transform="matrix(0.603124, 0.0967291, -0.0967291, 0.603124, 851.459795, 39.882868)" fill="none" stroke-linejoin="miter" d="M 70.668818 26.32802 L 70.666629 96.056488 C 70.669875 106.859097 62.007356 115.521724 51.333057 115.517346 L 48.664736 115.51783 C 37.985136 115.520778 29.329836 106.86356 29.325576 96.054637 L 29.328779 26.332483 L 9.341625 26.332062 L 9.344737 96.053203 C 9.339614 117.666761 27.049207 135.409435 48.661753 135.408244 L 51.330074 135.40776 C 72.948934 135.405556 90.52565 117.670766 90.523446 96.051906 L 90.526648 26.329752 Z M 70.668818 26.32802 " stroke="#80004e" stroke-width="10.00005" stroke-opacity="1" stroke-miterlimit="4"/><path stroke-linecap="butt" transform="matrix(0.595898, 0.134242, -0.134242, 0.595898, 914.70764, 50.134837)" fill="none" stroke-linejoin="miter" d="M 89.450501 26.328625 L 9.339103 26.329335 L 9.342169 46.217236 L 39.450798 46.219116 L 39.452176 132.997039 L 59.341482 133.000213 L 59.338698 46.21605 L 89.453566 46.216525 Z M 89.450501 26.328625 " stroke="#80004e" stroke-width="10.00005" stroke-opacity="1" stroke-miterlimit="4"/><path stroke-linecap="butt" transform="matrix(0.589531, 0.159901, -0.159901, 0.589531, 975.543245, 64.293547)" fill="none" stroke-linejoin="miter" d="M 9.340559 26.328538 L 29.330774 26.326613 L 29.328229 132.608847 L 9.344186 132.609098 Z M 9.340559 26.328538 " stroke="#80004e" stroke-width="10.00005" stroke-opacity="1" stroke-miterlimit="4"/><g fill="#e92f33" fill-opacity="1"><g transform="translate(462.672854, 148.634264)"><g><path d="M 27.378906 -73.5 L 34.585938 -44.660156 L 8.910156 -38.242188 L 1.699219 -67.078125 L -10.152344 -64.117188 L 5.667969 -0.828125 L 17.519531 -3.792969 L 11.851562 -26.46875 L 37.53125 -32.886719 L 43.199219 -10.210938 L 54.972656 -13.15625 L 39.152344 -76.441406 Z M 27.378906 -73.5 "/></g></g></g><g fill="#e92f33" fill-opacity="1"><g transform="translate(520.830382, 133.835957)"><g><path d="M 24.078125 -71.269531 C 5.957031 -68.054688 -6.113281 -50.777344 -2.898438 -32.652344 C 0.316406 -14.53125 17.59375 -2.460938 35.71875 -5.675781 C 53.839844 -8.890625 65.910156 -26.171875 62.695312 -44.292969 C 59.480469 -62.414062 42.203125 -74.488281 24.078125 -71.269531 Z M 26.257812 -59.003906 C 37.644531 -61.023438 47.296875 -53.222656 49.304688 -41.917969 C 51.3125 -30.609375 44.929688 -19.964844 33.542969 -17.945312 C 22.234375 -15.9375 12.578125 -23.738281 10.574219 -35.042969 C 8.566406 -46.351562 14.949219 -56.996094 26.257812 -59.003906 Z M 26.257812 -59.003906 "/></g></g></g><g fill="#e92f33" fill-opacity="1"><g transform="translate(589.864621, 121.684476)"><g><path d="M 51.964844 -46.492188 C 50.53125 -59.933594 43.222656 -70.132812 26.699219 -68.371094 L -1.238281 -65.390625 L 5.667969 -0.605469 L 17.816406 -1.898438 L 16.097656 -18.015625 L 31.890625 -19.699219 C 33.347656 -19.855469 34.714844 -20.082031 35.992188 -20.382812 L 43.570312 -4.644531 L 56.285156 -6 L 46.703125 -25.945312 C 51.574219 -30.96875 52.828125 -38.394531 51.964844 -46.492188 Z M 14.804688 -30.164062 L 12.195312 -54.621094 L 27.988281 -56.304688 C 33.980469 -56.941406 35.816406 -55.089844 36.453125 -54.503906 C 38.199219 -52.722656 39.371094 -49.410156 39.820312 -45.195312 C 40.292969 -40.742188 39.847656 -37.253906 38.578125 -35.320312 C 37.390625 -33.390625 34.726562 -32.285156 30.59375 -31.847656 Z M 14.804688 -30.164062 "/></g></g></g><g fill="#e92f33" fill-opacity="1"><g transform="translate(649.797529, 115.261282)"><g><path d="M 51.796875 -67.441406 L 2.894531 -65.339844 L 3.417969 -53.214844 L 21.804688 -54.007812 L 24.085938 -1.035156 L 36.207031 -1.558594 L 33.929688 -54.527344 L 52.320312 -55.320312 Z M 51.796875 -67.441406 "/></g></g></g><g fill="#e92f33" fill-opacity="1"><g transform="translate(708.703608, 113.094872)"><g><path d="M 5.71875 -65.152344 L 17.9375 -65.148438 L 17.917969 -0.238281 L 5.699219 -0.242188 Z M 5.71875 -65.152344 "/></g></g></g><g fill="#e92f33" fill-opacity="1"><g transform="translate(731.112758, 112.8365)"><g><path d="M 48.152344 -51.148438 L 48.613281 -63.355469 L 8.167969 -64.890625 L 5.695312 0.214844 L 17.90625 0.679688 L 18.777344 -22.351562 L 36.683594 -21.671875 L 37.144531 -33.882812 L 19.242188 -34.558594 L 19.910156 -52.21875 Z M 48.152344 -51.148438 "/></g></g></g><g fill="#e92f33" fill-opacity="1"><g transform="translate(778.599163, 114.398032)"><g><path d="M 60.226562 -35.140625 C 61.515625 -48.597656 56.394531 -60.050781 39.855469 -61.636719 L 11.886719 -64.3125 L 5.675781 0.542969 L 17.835938 1.707031 L 19.378906 -14.425781 L 35.191406 -12.910156 C 36.648438 -12.773438 38.035156 -12.722656 39.347656 -12.757812 L 43.617188 4.175781 L 56.34375 5.394531 L 50.953125 -16.066406 C 56.730469 -20.011719 59.449219 -27.03125 60.226562 -35.140625 Z M 20.546875 -26.585938 L 22.890625 -51.070312 L 38.699219 -49.554688 C 44.699219 -48.980469 46.125 -46.800781 46.628906 -46.097656 C 47.984375 -44.003906 48.46875 -40.519531 48.066406 -36.304688 C 47.636719 -31.847656 46.5 -28.519531 44.871094 -26.875 C 43.324219 -25.222656 40.488281 -24.675781 36.355469 -25.070312 Z M 20.546875 -26.585938 "/></g></g></g><g fill="#e92f33" fill-opacity="1"><g transform="translate(838.594823, 120.098335)"><g><path d="M 52.9375 -57.496094 L 46.191406 -15.441406 C 45.148438 -8.925781 39.082031 -4.539062 32.648438 -5.570312 L 31.039062 -5.828125 C 24.609375 -6.859375 20.21875 -12.925781 21.261719 -19.4375 L 28.007812 -61.496094 L 15.945312 -63.429688 L 9.203125 -21.371094 C 7.113281 -8.34375 16.09375 4.066406 29.121094 6.15625 L 30.726562 6.414062 C 43.753906 8.503906 56.085938 -0.492188 58.175781 -13.519531 L 64.917969 -55.574219 Z M 52.9375 -57.496094 "/></g></g></g><g fill="#e92f33" fill-opacity="1"><g transform="translate(896.853429, 129.389211)"><g><path d="M 67.628906 -51.550781 L 19.878906 -62.308594 L 17.214844 -50.46875 L 35.167969 -46.425781 L 23.515625 5.296875 L 35.355469 7.964844 L 47.007812 -43.757812 L 64.964844 -39.710938 Z M 67.628906 -51.550781 "/></g></g></g><g fill="#e92f33" fill-opacity="1"><g transform="translate(954.276465, 142.701151)"><g><path d="M 22.558594 -61.390625 L 34.347656 -58.191406 L 17.355469 4.453125 L 5.566406 1.257812 Z M 22.558594 -61.390625 "/></g></g></g><path stroke-linecap="butt" transform="matrix(0.449091, 0, 0, 0.449091, 453.466615, 151.902128)" fill="none" stroke-linejoin="miter" d="M 150.351873 5.871717 L 150.351873 19.64955 L 199.818119 19.64955 L 199.818119 145.998538 L 215.457351 145.998538 L 215.457351 19.64955 L 265.062767 19.64955 L 265.062767 5.871717 Z M 300.716388 145.998538 L 300.716388 98.932974 L 387.375824 98.932974 L 387.375824 145.998538 L 402.823697 145.998538 L 402.823697 65.740923 C 402.823697 27.469165 378.582018 4.062507 343.972172 4.062507 C 309.318836 4.062507 285.077157 27.469165 285.077157 65.740923 L 285.077157 145.998538 Z M 300.716388 65.740923 C 300.716388 35.688895 318.512756 18.092585 343.972172 18.092585 C 369.588155 18.092585 387.375824 35.688895 387.375824 65.740923 L 387.375824 84.955085 L 300.716388 84.955085 Z M 422.803294 5.871717 L 422.803294 19.64955 L 472.269541 19.64955 L 472.269541 145.998538 L 487.908773 145.998538 L 487.908773 19.64955 L 537.522887 19.64955 L 537.522887 5.871717 Z M 577.377704 145.998538 L 577.377704 5.871717 L 561.929831 5.871717 L 561.929831 145.998538 Z M 627.826838 145.998538 L 627.826838 98.932974 L 714.486274 98.932974 L 714.486274 145.998538 L 729.934147 145.998538 L 729.934147 65.740923 C 729.934147 27.469165 705.68377 4.062507 671.082622 4.062507 C 636.429285 4.062507 612.187606 27.469165 612.187606 65.740923 L 612.187606 145.998538 Z M 627.826838 65.740923 C 627.826838 35.688895 645.614507 18.092585 671.082622 18.092585 C 696.689907 18.092585 714.486274 35.688895 714.486274 65.740923 L 714.486274 84.955085 L 627.826838 84.955085 Z M 819.220417 4.062507 C 783.149286 4.062507 760.325402 26.494975 760.325402 63.496806 L 760.325402 145.998538 L 775.964634 145.998538 L 775.964634 66.332395 C 775.964634 37.097992 792.586754 20.284513 819.220417 20.284513 C 846.00195 20.284513 862.62407 37.097992 862.62407 66.332395 L 862.62407 145.998538 L 878.071943 145.998538 L 878.071943 63.496806 C 878.071943 26.494975 855.439417 4.062507 819.220417 4.062507 Z M 924.102429 145.998538 L 924.102429 98.932974 L 1010.761865 98.932974 L 1010.761865 145.998538 L 1026.209738 145.998538 L 1026.209738 65.740923 C 1026.209738 27.469165 1001.968059 4.062507 967.358213 4.062507 C 932.704876 4.062507 908.463197 27.469165 908.463197 65.740923 L 908.463197 145.998538 Z M 924.102429 65.740923 C 924.102429 35.688895 941.898796 18.092585 967.358213 18.092585 C 992.974196 18.092585 1010.761865 35.688895 1010.761865 65.740923 L 1010.761865 84.955085 L 924.102429 84.955085 Z M 924.102429 65.740923 " stroke="#80004e" stroke-width="15.015375" stroke-opacity="1" stroke-miterlimit="4"/><g fill="#e92f33" fill-opacity="1"><g transform="translate(518.837417, 217.469407)"><g><path d="M 2.15625 -62.9375 L 2.15625 -56.730469 L 24.363281 -56.730469 L 24.363281 0 L 31.378906 0 L 31.378906 -56.730469 L 53.675781 -56.730469 L 53.675781 -62.9375 Z M 2.15625 -62.9375 "/></g></g></g><g fill="#e92f33" fill-opacity="1"><g transform="translate(574.666791, 217.469407)"><g><path d="M 13.847656 0 L 13.847656 -21.128906 L 52.777344 -21.128906 L 52.777344 0 L 59.699219 0 L 59.699219 -36.054688 C 59.699219 -53.226562 48.820312 -63.746094 33.265625 -63.746094 C 17.710938 -63.746094 6.832031 -53.226562 6.832031 -36.054688 L 6.832031 0 Z M 13.847656 -36.054688 C 13.847656 -49.539062 21.847656 -57.453125 33.265625 -57.453125 C 44.773438 -57.453125 52.777344 -49.539062 52.777344 -36.054688 L 52.777344 -27.421875 L 13.847656 -27.421875 Z M 13.847656 -36.054688 "/></g></g></g><g fill="#e92f33" fill-opacity="1"><g transform="translate(641.194542, 217.469407)"><g><path d="M 2.15625 -62.9375 L 2.15625 -56.730469 L 24.363281 -56.730469 L 24.363281 0 L 31.378906 0 L 31.378906 -56.730469 L 53.675781 -56.730469 L 53.675781 -62.9375 Z M 2.15625 -62.9375 "/></g></g></g><g fill="#e92f33" fill-opacity="1"><g transform="translate(697.023915, 217.469407)"><g><path d="M 15.734375 0 L 15.734375 -62.9375 L 8.8125 -62.9375 L 8.8125 0 Z M 15.734375 0 "/></g></g></g><g fill="#e92f33" fill-opacity="1"><g transform="translate(721.567254, 217.469407)"><g><path d="M 13.847656 0 L 13.847656 -21.128906 L 52.777344 -21.128906 L 52.777344 0 L 59.699219 0 L 59.699219 -36.054688 C 59.699219 -53.226562 48.820312 -63.746094 33.265625 -63.746094 C 17.710938 -63.746094 6.832031 -53.226562 6.832031 -36.054688 L 6.832031 0 Z M 13.847656 -36.054688 C 13.847656 -49.539062 21.847656 -57.453125 33.265625 -57.453125 C 44.773438 -57.453125 52.777344 -49.539062 52.777344 -36.054688 L 52.777344 -27.421875 L 13.847656 -27.421875 Z M 13.847656 -36.054688 "/></g></g></g><g fill="#e92f33" fill-opacity="1"><g transform="translate(788.095019, 217.469407)"><g><path d="M 33.265625 -63.746094 C 17.082031 -63.746094 6.832031 -53.675781 6.832031 -37.042969 L 6.832031 0 L 13.847656 0 L 13.847656 -35.785156 C 13.847656 -48.910156 21.308594 -56.460938 33.265625 -56.460938 C 45.3125 -56.460938 52.777344 -48.910156 52.777344 -35.785156 L 52.777344 0 L 59.699219 0 L 59.699219 -37.042969 C 59.699219 -53.675781 49.539062 -63.746094 33.265625 -63.746094 Z M 33.265625 -63.746094 "/></g></g></g><g fill="#e92f33" fill-opacity="1"><g transform="translate(854.622756, 217.469407)"><g><path d="M 13.847656 0 L 13.847656 -21.128906 L 52.777344 -21.128906 L 52.777344 0 L 59.699219 0 L 59.699219 -36.054688 C 59.699219 -53.226562 48.820312 -63.746094 33.265625 -63.746094 C 17.710938 -63.746094 6.832031 -53.226562 6.832031 -36.054688 L 6.832031 0 Z M 13.847656 -36.054688 C 13.847656 -49.539062 21.847656 -57.453125 33.265625 -57.453125 C 44.773438 -57.453125 52.777344 -49.539062 52.777344 -36.054688 L 52.777344 -27.421875 L 13.847656 -27.421875 Z M 13.847656 -36.054688 "/></g></g></g><g fill="#90004e" fill-opacity="1"><g transform="translate(698.235907, 148.358377)"><g><path d="M 6.273438 0.664062 C 9.195312 0.664062 12.25 -1.726562 13.910156 -6.40625 C 13.679688 -4.082031 13.3125 -1.890625 12.847656 0 L 21.582031 0 C 19.589844 -8.132812 19.589844 -21.414062 21.582031 -29.546875 L 12.847656 -29.546875 C 13.546875 -26.726562 14.011719 -23.273438 14.210938 -19.621094 C 13.613281 -20.851562 12.417969 -21.316406 11.089844 -21.316406 C 5.675781 -21.316406 2.15625 -16.070312 0.960938 -10.988281 C 0.03125 -6.839844 0.5625 0.664062 6.273438 0.664062 Z M 11.585938 -19.65625 C 11.820312 -19.753906 12.050781 -19.789062 12.25 -19.789062 C 13.082031 -19.789062 13.777344 -19.15625 14.109375 -18.195312 C 14.441406 -15.605469 14.410156 -13.3125 14.175781 -11.320312 C 13.480469 -5.808594 11.054688 -2.6875 9.195312 -2.6875 C 8.964844 -2.6875 8.765625 -2.722656 8.566406 -2.820312 C 4.945312 -4.382812 7.867188 -18.261719 11.585938 -19.65625 Z M 11.585938 -19.65625 "/></g></g></g><g fill="#90004e" fill-opacity="1"><g transform="translate(720.745039, 148.358377)"><g><path d="M 11.386719 -2.988281 C 11.320312 -1.992188 11.386719 -1.027344 11.6875 0 L 20.417969 0 C 17.53125 -5.378906 18.195312 -8.964844 18.691406 -12.21875 C 19.65625 -18.492188 15.570312 -21.347656 11.054688 -21.347656 C 8.433594 -21.347656 5.644531 -20.386719 3.617188 -18.59375 C 1.460938 -16.734375 2.855469 -14.175781 5.875 -14.507812 C 7.503906 -14.707031 9.496094 -15.539062 9.761719 -18.859375 C 9.828125 -19.820312 10.390625 -20.285156 11.089844 -20.285156 C 12.050781 -20.285156 13.28125 -19.355469 13.777344 -17.695312 C 14.375 -15.671875 13.945312 -13.8125 13.347656 -12.582031 C 12.050781 -13.613281 10.457031 -14.078125 8.832031 -14.078125 C 4.8125 -14.078125 0.5625 -11.222656 -0.0664062 -6.804688 C -0.796875 -1.824219 2.289062 0.695312 5.542969 0.695312 C 7.800781 0.695312 10.160156 -0.53125 11.386719 -2.988281 Z M 6.707031 -7.734375 C 7.46875 -10.824219 9.429688 -12.550781 10.855469 -12.550781 C 11.753906 -12.550781 12.449219 -11.851562 12.449219 -10.324219 C 11.886719 -4.449219 9.960938 -2.058594 8.433594 -2.058594 C 6.9375 -2.058594 5.84375 -4.28125 6.707031 -7.734375 Z M 6.707031 -7.734375 "/></g></g></g></svg>